<svg width="170" height="56" viewBox="0 0 170 56" fill="none" xmlns="http://www.w3.org/2000/svg">
<g clip-path="url(#clip0_182_238)">
<path fill-rule="evenodd" clip-rule="evenodd" d="M32.3926 0.618183C36.7817 0.618183 40.4289 4.26546 40.4289 8.65455V36.04C40.4289 46.6109 31.8362 55.2036 21.4507 55.2036C10.8798 55.2036 2.28711 46.6109 2.28711 36.04V30.9091C2.28711 26.52 5.93438 22.8727 10.3235 22.8727C14.7126 22.8727 18.3598 26.52 18.3598 30.9091V36.04C18.3598 37.7091 19.658 38.9455 21.2653 38.9455C22.9344 38.9455 24.1707 37.6473 24.1707 36.04V8.65455C24.1707 4.26546 27.818 0.618183 32.3926 0.618183ZM76.098 11.56C80.4871 11.56 84.1344 15.2073 84.1344 19.5964V36.04C84.1344 46.6109 75.5417 55.2036 65.1562 55.2036C54.5853 55.2036 46.178 46.6109 46.178 36.04V19.5964C46.178 15.2073 49.8253 11.56 54.2144 11.56C58.6035 11.56 62.2507 15.2073 62.2507 19.5964V36.04C62.2507 37.7091 63.5489 38.9455 65.1562 38.9455C66.8253 38.9455 68.0617 37.6473 68.0617 36.04V19.5964C68.0617 15.2073 71.7089 11.56 76.098 11.56ZM113.931 16.1345C115.785 12.1164 120.483 10.2618 124.502 12.1164C128.52 13.9709 130.374 18.6691 128.52 22.8727L116.094 50.2582C114.796 53.1636 112.076 55.2036 108.8 55.2036H108.429C105.338 55.0182 102.742 53.1636 101.505 50.4436L89.0798 22.8727C87.2253 18.8545 89.0798 13.9091 93.098 12.1164C97.1162 10.2618 101.876 12.1164 103.669 16.1345L108.8 27.4473L113.931 16.1345ZM150.836 11.56C161.407 11.56 169.814 20.1527 169.814 30.7236V36.2255C169.814 46.7964 161.222 55.3891 150.836 55.3891C140.265 55.3891 131.858 46.7964 131.858 36.2255V30.7236C131.673 20.1527 140.265 11.56 150.836 11.56ZM150.836 27.6327C149.167 27.6327 147.931 28.9309 147.931 30.5382V36.04C147.931 37.7091 149.229 38.9455 150.836 38.9455C152.443 38.9455 153.742 37.6473 153.742 36.04V30.5382C153.742 28.9309 152.505 27.6327 150.836 27.6327Z" fill="#DD3E84"/>
</g>
<defs>
<clipPath id="clip0_182_238">
<rect width="170" height="55.4509" fill="white"/>
</clipPath>
</defs>
</svg>
