<svg width="65" height="67" viewBox="0 0 65 67" fill="none" xmlns="http://www.w3.org/2000/svg">
<g id="Group 16">
<path id="car_crash" d="M0 38.2402L7.42556 17.5169C7.60828 16.9341 7.95969 16.483 8.4798 16.1635C9.00053 15.844 9.57988 15.6842 10.2179 15.6842H27.1204C27.0774 16.2951 27.0799 16.906 27.1279 17.5169C27.1759 18.1278 27.2454 18.7387 27.3365 19.3496H10.8081L5.29648 34.5748H37.7274C39.2191 35.5712 40.7997 36.3785 42.4692 36.9967C44.1386 37.6144 45.9278 38.0289 47.8367 38.2402H3.74178V56.0037H56.1266V39.0228C56.7166 38.9807 57.3474 38.8585 58.019 38.6563C58.6907 38.4541 59.3072 38.1956 59.8684 37.881V65.1673C59.8684 65.6866 59.6891 66.1218 59.3305 66.4731C58.972 66.8244 58.5276 67 57.9975 67H57.1341C56.604 67 56.1597 66.8244 55.8011 66.4731C55.4425 66.1218 55.2632 65.6866 55.2632 65.1673V59.6692H4.60519V65.1673C4.60519 65.6866 4.4259 66.1218 4.06731 66.4731C3.70872 66.8244 3.26439 67 2.7343 67H1.87089C1.3408 67 0.896467 66.8244 0.53788 66.4731C0.179293 66.1218 0 65.6866 0 65.1673V38.2402ZM47.0772 51.2103C48.2408 51.2103 49.2246 50.8114 50.0285 50.0135C50.8317 49.2151 51.2333 48.2459 51.2333 47.106C51.2333 45.9654 50.8261 45.0017 50.0116 44.2149C49.1966 43.4274 48.2072 43.0337 47.0435 43.0337C45.8792 43.0337 44.8954 43.4329 44.0922 44.2314C43.2883 45.0292 42.8864 45.9984 42.8864 47.1389C42.8864 48.2789 43.2939 49.2426 44.109 50.03C44.9235 50.8169 45.9128 51.2103 47.0772 51.2103ZM12.8249 51.2103C13.9893 51.2103 14.973 50.8114 15.7763 50.0135C16.5801 49.2151 16.9821 48.2459 16.9821 47.106C16.9821 45.9654 16.5745 45.0017 15.7594 44.2149C14.945 43.4274 13.9556 43.0337 12.7913 43.0337C11.6276 43.0337 10.6438 43.4329 9.83994 44.2314C9.0367 45.0292 8.63508 45.9984 8.63508 47.1389C8.63508 48.2789 9.04231 49.2426 9.85677 50.03C10.6719 50.8169 11.6612 51.2103 12.8249 51.2103Z" fill="#1BC2B2"/>
<path id="paid" d="M48.4583 26.7161H50.6711V24.7529C51.928 24.5825 53.066 24.1102 54.0851 23.3362C55.1041 22.5624 55.6136 21.3891 55.6136 19.8164C55.6136 18.6821 55.2791 17.6786 54.6101 16.806C53.9411 15.9336 52.6343 15.1463 50.6897 14.4441C48.986 13.8623 47.8548 13.3585 47.296 12.9326C46.7372 12.5066 46.4578 11.9114 46.4578 11.1468C46.4578 10.3822 46.7439 9.76097 47.3162 9.2832C47.8885 8.80542 48.6785 8.56653 49.6862 8.56653C50.5297 8.56653 51.21 8.76545 51.7272 9.16328C52.2447 9.56111 52.6427 10.0602 52.9211 10.6606L54.9216 9.85645C54.583 8.99434 54.0309 8.25634 53.2655 7.64244C52.4998 7.02854 51.662 6.68621 50.7521 6.61545V4.65222H48.5393V6.61545C47.1578 6.88148 46.0968 7.44191 45.3562 8.29672C44.6154 9.1518 44.245 10.1018 44.245 11.1468C44.245 12.3643 44.6138 13.3439 45.3514 14.0855C46.089 14.8272 47.2908 15.4971 48.957 16.0954C50.6793 16.7271 51.8558 17.2939 52.4864 17.7957C53.1168 18.2972 53.432 18.9708 53.432 19.8164C53.432 20.8325 53.0654 21.5705 52.3321 22.0304C51.5985 22.4907 50.7706 22.7208 49.8483 22.7208C48.9362 22.7208 48.1203 22.4466 47.4005 21.8984C46.6805 21.3498 46.1272 20.5478 45.7407 19.4923L43.6904 20.3277C44.1101 21.5304 44.713 22.4859 45.4992 23.1944C46.2857 23.9028 47.2721 24.3953 48.4583 24.6719V26.7161ZM49.6052 31.0789C47.4777 31.0789 45.4776 30.6743 43.6049 29.8651C41.7319 29.056 40.1024 27.9585 38.7167 26.5727C37.3309 25.1869 36.2334 23.5575 35.4242 21.6845C34.615 19.8117 34.2104 17.8116 34.2104 15.6842C34.2104 13.5567 34.615 11.5566 35.4242 9.68386C36.2334 7.81084 37.3309 6.18143 38.7167 4.79563C40.1024 3.40983 41.7319 2.31235 43.6049 1.50318C45.4776 0.694014 47.4777 0.289429 49.6052 0.289429C51.7326 0.289429 53.7327 0.694014 55.6055 1.50318C57.4785 2.31235 59.1079 3.40983 60.4937 4.79563C61.8795 6.18143 62.977 7.81084 63.7862 9.68386C64.5953 11.5566 64.9999 13.5567 64.9999 15.6842C64.9999 17.8116 64.5953 19.8117 63.7862 21.6845C62.977 23.5575 61.8795 25.1869 60.4937 26.5727C59.1079 27.9585 57.4785 29.056 55.6055 29.8651C53.7327 30.6743 51.7326 31.0789 49.6052 31.0789ZM49.6052 28.6482C53.2243 28.6482 56.2897 27.3923 58.8015 24.8805C61.3133 22.3687 62.5692 19.3033 62.5692 15.6842C62.5692 12.0651 61.3133 8.99961 58.8015 6.48784C56.2897 3.97606 53.2243 2.72018 49.6052 2.72018C45.9861 2.72018 42.9206 3.97606 40.4089 6.48784C37.8971 8.99961 36.6412 12.0651 36.6412 15.6842C36.6412 19.3033 37.8971 22.3687 40.4089 24.8805C42.9206 27.3923 45.9861 28.6482 49.6052 28.6482Z" fill="#1BC2B2"/>
</g>
</svg>
