<svg width="47" height="77" viewBox="0 0 47 77" fill="none" xmlns="http://www.w3.org/2000/svg">
<g id="Group 19">
<path id="paid" d="M22.1979 48.4286H25.5385V45.4541C27.4361 45.1959 29.1541 44.4804 30.6924 43.3077C32.2308 42.1353 33 40.3578 33 37.975C33 36.2564 32.495 34.736 31.4851 33.4139C30.4751 32.0922 28.5023 30.8994 25.5666 29.8355C22.9946 28.954 21.2868 28.1907 20.4432 27.5454C19.5996 26.9001 19.1778 25.9982 19.1778 24.8398C19.1778 23.6813 19.6098 22.7402 20.4738 22.0163C21.3378 21.2924 22.5304 20.9305 24.0517 20.9305C25.325 20.9305 26.3521 21.2319 27.1329 21.8346C27.9141 22.4374 28.5149 23.1936 28.9353 24.1032L31.9554 22.8848C31.4441 21.5787 30.6107 20.4605 29.4552 19.5304C28.2992 18.6003 27.0345 18.0817 25.6608 17.9745V15H22.3202V17.9745C20.2347 18.3775 18.6329 19.2266 17.5149 20.5217C16.3965 21.8172 15.8373 23.2566 15.8373 24.8398C15.8373 26.6844 16.394 28.1686 17.5076 29.2922C18.6211 30.4159 20.4355 31.4309 22.9508 32.3373C25.5509 33.2944 27.327 34.1531 28.2791 34.9134C29.2307 35.6733 29.7065 36.6938 29.7065 37.975C29.7065 39.5144 29.153 40.6325 28.046 41.3294C26.9386 42.0267 25.6887 42.3753 24.2963 42.3753C22.9194 42.3753 21.6876 41.96 20.601 41.1293C19.514 40.2982 18.6788 39.0831 18.0953 37.484L15 38.7496C15.6336 40.5718 16.5439 42.0195 17.7308 43.0928C18.9181 44.1662 20.4072 44.9123 22.1979 45.3314V48.4286Z" fill="#1BC2B2"/>
<rect id="Rectangle 17" x="1.75" y="1.75" width="43.5" height="73.5" rx="6.25" stroke="#1BC2B2" stroke-width="3.5"/>
<rect id="Rectangle 18" x="18" y="63" width="11" height="4" rx="2" fill="#1BC2B2"/>
</g>
</svg>
