<svg width="80" height="80" viewBox="0 0 80 80" fill="none" xmlns="http://www.w3.org/2000/svg">
<mask id="mask0_190_104" style="mask-type:alpha" maskUnits="userSpaceOnUse" x="0" y="0" width="80" height="80">
<rect width="80" height="80" fill="#D9D9D9"/>
</mask>
<g mask="url(#mask0_190_104)">
<path d="M19.6667 68.0244C18.0556 68.0244 16.7083 67.4827 15.625 66.3994C14.5417 65.3161 14 63.9689 14 62.3577V53.3577H24V10.0244H65.3333V62.3577C65.3333 63.9689 64.7917 65.3161 63.7083 66.3994C62.625 67.4827 61.2778 68.0244 59.6667 68.0244H19.6667ZM59.6667 65.6911C60.6111 65.6911 61.4028 65.3716 62.0417 64.7327C62.6806 64.0939 63 63.3022 63 62.3577V12.3577H26.3333V53.3577H56.3333V62.3577C56.3333 63.3022 56.6528 64.0939 57.2917 64.7327C57.9306 65.3716 58.7222 65.6911 59.6667 65.6911ZM31.3333 32.6735V30.3402H41.1579V32.6735H31.3333ZM31.3333 40.9718V38.6384H58V40.9718H31.3333ZM19.6667 65.6911H54V55.6911H16.3333V62.3577C16.3333 63.3022 16.6528 64.0939 17.2917 64.7327C17.9306 65.3716 18.7222 65.6911 19.6667 65.6911ZM19.6667 65.6911H16.3333H54H19.6667Z" fill="#DD3E84"/>
<path d="M31.3335 22.6209V24.9542H41.158V22.6209H31.3335Z" fill="#DD3E84"/>
<path d="M52.2167 20.5128V22.9825H51.0612V20.5128H52.2167ZM52.0781 33.7355V35.8974H50.9303V33.7355H52.0781ZM53.6187 31.1768C53.6187 30.8529 53.5494 30.5614 53.4108 30.3023C53.2721 30.0432 53.0436 29.8057 52.7252 29.5897C52.4068 29.3738 51.9805 29.1741 51.4464 28.9905C50.7993 28.78 50.2396 28.5236 49.7671 28.2213C49.2998 27.919 48.9377 27.5439 48.6809 27.0958C48.4293 26.6478 48.3035 26.1053 48.3035 25.4683C48.3035 24.8043 48.4395 24.2321 48.7117 23.7517C48.9839 23.2713 49.3691 22.9015 49.8672 22.6424C50.3654 22.3833 50.9508 22.2537 51.6236 22.2537C52.1474 22.2537 52.6147 22.3374 53.0256 22.5047C53.4364 22.6667 53.7831 22.9096 54.0655 23.2335C54.3531 23.5574 54.5714 23.9541 54.7203 24.4237C54.8744 24.8934 54.9514 25.4359 54.9514 26.0513H53.534C53.534 25.6896 53.4929 25.3576 53.4108 25.0553C53.3286 24.753 53.2053 24.4912 53.041 24.2699C52.8767 24.0432 52.6764 23.8704 52.4401 23.7517C52.2039 23.6275 51.9317 23.5654 51.6236 23.5654C51.1922 23.5654 50.8353 23.6437 50.5528 23.8003C50.2755 23.9568 50.0701 24.1781 49.9366 24.4642C49.803 24.7449 49.7363 25.0715 49.7363 25.444C49.7363 25.7895 49.803 26.0918 49.9366 26.3509C50.0701 26.61 50.296 26.8448 50.6144 27.0553C50.938 27.2605 51.3822 27.4629 51.9471 27.6626C52.6096 27.8839 53.1719 28.1457 53.6341 28.448C54.0963 28.7449 54.4481 29.112 54.6895 29.5493C54.9309 29.9811 55.0516 30.5182 55.0516 31.1606C55.0516 31.8569 54.9026 32.4453 54.6048 32.9258C54.3069 33.4008 53.8884 33.7625 53.3491 34.0108C52.8099 34.2591 52.1782 34.3833 51.4541 34.3833C51.0176 34.3833 50.5862 34.3212 50.16 34.197C49.7337 34.0729 49.3485 33.8704 49.0045 33.5897C48.6604 33.3036 48.3856 32.9285 48.1802 32.4642C47.9748 31.9946 47.8721 31.4197 47.8721 30.7395H49.3049C49.3049 31.1984 49.3665 31.5789 49.4898 31.8812C49.6182 32.1781 49.7876 32.4157 49.9982 32.5938C50.2087 32.7665 50.4398 32.8907 50.6915 32.9663C50.9483 33.0364 51.2025 33.0715 51.4541 33.0715C51.9163 33.0715 52.3066 32.9959 52.625 32.8448C52.9486 32.6883 53.1951 32.4669 53.3645 32.1808C53.534 31.8947 53.6187 31.5601 53.6187 31.1768Z" fill="#DD3E84"/>
</g>
</svg>
