<svg width="80" height="80" viewBox="0 0 80 80" fill="none" xmlns="http://www.w3.org/2000/svg">
<mask id="mask0_190_152" style="mask-type:alpha" maskUnits="userSpaceOnUse" x="0" y="0" width="80" height="80">
<rect width="80" height="80" fill="#D9D9D9"/>
</mask>
<g mask="url(#mask0_190_152)">
<path d="M35.205 53.0258L56.5258 31.705L54.1667 29.3458L35.205 48.3075L25.705 38.8075L23.3458 41.1667L35.205 53.0258ZM40.0108 70C35.8625 70 31.9622 69.2128 28.31 67.6383C24.6583 66.0639 21.4817 63.9272 18.78 61.2283C16.0783 58.5294 13.9397 55.3556 12.3642 51.7067C10.7881 48.0583 10 44.1597 10 40.0108C10 35.8625 10.7872 31.9622 12.3617 28.31C13.9361 24.6583 16.0728 21.4817 18.7717 18.78C21.4706 16.0783 24.6444 13.9397 28.2933 12.3642C31.9417 10.7881 35.8403 10 39.9892 10C44.1375 10 48.0378 10.7872 51.69 12.3617C55.3417 13.9361 58.5183 16.0728 61.22 18.7717C63.9217 21.4706 66.0603 24.6444 67.6358 28.2933C69.2119 31.9417 70 35.8403 70 39.9892C70 44.1375 69.2128 48.0378 67.6383 51.69C66.0639 55.3417 63.9272 58.5183 61.2283 61.22C58.5294 63.9217 55.3556 66.0603 51.7067 67.6358C48.0583 69.2119 44.1597 70 40.0108 70ZM40 66.6667C47.4444 66.6667 53.75 64.0833 58.9167 58.9167C64.0833 53.75 66.6667 47.4444 66.6667 40C66.6667 32.5556 64.0833 26.25 58.9167 21.0833C53.75 15.9167 47.4444 13.3333 40 13.3333C32.5556 13.3333 26.25 15.9167 21.0833 21.0833C15.9167 26.25 13.3333 32.5556 13.3333 40C13.3333 47.4444 15.9167 53.75 21.0833 58.9167C26.25 64.0833 32.5556 66.6667 40 66.6667Z" fill="#DD3E84"/>
</g>
</svg>
