<svg width="80" height="80" viewBox="0 0 80 80" fill="none" xmlns="http://www.w3.org/2000/svg">
<mask id="mask0_190_176" style="mask-type:alpha" maskUnits="userSpaceOnUse" x="0" y="0" width="80" height="80">
<rect width="80" height="80" fill="#D9D9D9"/>
</mask>
<g mask="url(#mask0_190_176)">
<path d="M70 22.0516V57.9483C70 59.4827 69.4861 60.7639 68.4583 61.7916C67.4306 62.8194 66.1494 63.3333 64.615 63.3333H15.385C13.8506 63.3333 12.5694 62.8194 11.5417 61.7916C10.5139 60.7639 10 59.4827 10 57.9483V22.0516C10 20.5172 10.5139 19.2361 11.5417 18.2083C12.5694 17.1805 13.8506 16.6666 15.385 16.6666H64.615C66.1494 16.6666 67.4306 17.1805 68.4583 18.2083C69.4861 19.2361 70 20.5172 70 22.0516ZM13.3333 29.3591H66.6667V22.0516C66.6667 21.5383 66.4531 21.068 66.0258 20.6408C65.5986 20.2136 65.1283 20 64.615 20H15.385C14.8717 20 14.4014 20.2136 13.9742 20.6408C13.5469 21.068 13.3333 21.5383 13.3333 22.0516V29.3591ZM13.3333 37.3075V57.9483C13.3333 58.4616 13.5469 58.9319 13.9742 59.3591C14.4014 59.7864 14.8717 60 15.385 60H64.615C65.1283 60 65.5986 59.7864 66.0258 59.3591C66.4531 58.9319 66.6667 58.4616 66.6667 57.9483V37.3075H13.3333Z" fill="#DD3E84"/>
</g>
</svg>
