<svg width="65" height="77" viewBox="0 0 65 77" fill="none" xmlns="http://www.w3.org/2000/svg">
<g id="paid">
<g id="Group 14">
<path id="remove_shopping_cart" d="M18.7667 76.4755C17.2752 76.4755 16.0183 75.9643 14.9959 74.9419C13.974 73.9195 13.4631 72.6628 13.4631 71.1719C13.4631 69.6804 13.974 68.4235 14.9959 67.4011C16.0183 66.3793 17.2752 65.8683 18.7667 65.8683C20.2582 65.8683 21.5148 66.3793 22.5366 67.4011C23.5591 68.4235 24.0703 69.6804 24.0703 71.1719C24.0703 72.6628 23.5591 73.9195 22.5366 74.9419C21.5148 75.9643 20.2582 76.4755 18.7667 76.4755ZM51.9476 76.4755C50.4561 76.4755 49.1995 75.9643 48.1777 74.9419C47.1552 73.9195 46.644 72.6628 46.644 71.1719C46.644 69.6804 47.1552 68.4235 48.1777 67.4011C49.1995 66.3793 50.4561 65.8683 51.9476 65.8683C53.4391 65.8683 54.696 66.3793 55.7185 67.4011C56.7403 68.4235 57.2512 69.6804 57.2512 71.1719C57.2512 72.6628 56.7403 73.9195 55.7185 74.9419C54.696 75.9643 53.4391 76.4755 51.9476 76.4755ZM0 14.1921V10.6564H8.65543L23.1386 41.1183H46.5963C47.0047 41.1183 47.3674 41.0161 47.6844 40.8116C48.002 40.6077 48.274 40.3246 48.5003 39.9622L60.862 17.7278H64.8936L51.5127 41.8927C51.0006 42.7542 50.3353 43.4298 49.5168 43.9195C48.6989 44.4092 47.8002 44.6541 46.8208 44.6541H21.5679L17.2702 52.5414C16.9078 53.0853 16.8966 53.6745 17.2366 54.3092C17.5766 54.9439 18.0867 55.2612 18.7667 55.2612H57.2512V58.7969H18.7667C16.7042 58.7969 15.1617 57.931 14.1393 56.199C13.1175 54.4677 13.096 52.7181 14.0748 50.9503L19.3916 41.4719L6.39169 14.1921H0Z" fill="#1BC2B2"/>
<path id="paid_2" d="M34.4811 23.4314H36.443V21.6907C37.5575 21.5396 38.5666 21.1208 39.4701 20.4345C40.3736 19.7484 40.8254 18.7082 40.8254 17.3137C40.8254 16.308 40.5288 15.4182 39.9356 14.6445C39.3424 13.871 38.1838 13.1729 36.4596 12.5503C34.949 12.0345 33.946 11.5878 33.4505 11.2101C32.955 10.8325 32.7073 10.3047 32.7073 9.62673C32.7073 8.94878 32.961 8.398 33.4685 7.97438C33.9759 7.55075 34.6764 7.33894 35.5698 7.33894C36.3177 7.33894 36.9209 7.51531 37.3795 7.86805C37.8383 8.22079 38.1912 8.66333 38.4381 9.19568L40.2118 8.48265C39.9115 7.71826 39.4221 7.06391 38.7434 6.51959C38.0645 5.97527 37.3217 5.67175 36.5149 5.609V3.86829H34.5529V5.609C33.328 5.84488 32.3873 6.34179 31.7306 7.09971C31.0738 7.85787 30.7453 8.70021 30.7453 9.62673C30.7453 10.7063 31.0723 11.5748 31.7263 12.2324C32.3803 12.89 33.446 13.484 34.9232 14.0144C36.4504 14.5745 37.4935 15.0771 38.0527 15.522C38.6116 15.9667 38.891 16.564 38.891 17.3137C38.891 18.2146 38.566 18.869 37.9158 19.2768C37.2654 19.6849 36.5313 19.8889 35.7135 19.8889C34.9048 19.8889 34.1814 19.6458 33.5432 19.1597C32.9047 18.6733 32.4142 17.9622 32.0715 17.0264L30.2536 17.7671C30.6257 18.8334 31.1603 19.6807 31.8574 20.3088C32.5548 20.9369 33.4293 21.3736 34.4811 21.6188V23.4314ZM35.498 27.2997C33.6117 27.2997 31.8383 26.9409 30.1778 26.2235C28.517 25.506 27.0723 24.5329 25.8436 23.3042C24.6149 22.0755 23.6418 20.6308 22.9243 18.97C22.2069 17.3095 21.8481 15.5361 21.8481 13.6498C21.8481 11.7635 22.2069 9.99012 22.9243 8.32963C23.6418 6.6689 24.6149 5.22417 25.8436 3.99545C27.0723 2.76672 28.517 1.79364 30.1778 1.07618C31.8383 0.358728 33.6117 0 35.498 0C37.3843 0 39.1577 0.358728 40.8182 1.07618C42.4789 1.79364 43.9236 2.76672 45.1524 3.99545C46.3811 5.22417 47.3542 6.6689 48.0716 8.32963C48.7891 9.99012 49.1478 11.7635 49.1478 13.6498C49.1478 15.5361 48.7891 17.3095 48.0716 18.97C47.3542 20.6308 46.3811 22.0755 45.1524 23.3042C43.9236 24.5329 42.4789 25.506 40.8182 26.2235C39.1577 26.9409 37.3843 27.2997 35.498 27.2997ZM35.498 25.1444C38.7069 25.1444 41.4249 24.0309 43.652 21.8038C45.879 19.5767 46.9926 16.8587 46.9926 13.6498C46.9926 10.4409 45.879 7.72293 43.652 5.49585C41.4249 3.26878 38.7069 2.15524 35.498 2.15524C32.2891 2.15524 29.5711 3.26878 27.344 5.49585C25.1169 7.72293 24.0034 10.4409 24.0034 13.6498C24.0034 16.8587 25.1169 19.5767 27.344 21.8038C29.5711 24.0309 32.2891 25.1444 35.498 25.1444Z" fill="#1BC2B2"/>
</g>
</g>
</svg>
